<?xml version="1.0" standalone="no"?>
<!DOCTYPE svg PUBLIC "-//W3C//DTD SVG 20010904//EN"
 "http://www.w3.org/TR/2001/REC-SVG-20010904/DTD/svg10.dtd">
<svg version="1.0" xmlns="http://www.w3.org/2000/svg"
 width="200.000000pt" height="200.000000pt" viewBox="0 0 200.000000 200.000000"
 preserveAspectRatio="xMidYMid meet">
<metadata>
Created by potrace 1.14, written by Peter Selinger 2001-2017
</metadata>
<g transform="translate(0.000000,200.000000) scale(0.100000,-0.100000)"
fill="#000000" stroke="none">
<path d="M280 885 c0 -8 9 -15 20 -15 11 0 20 2 20 5 0 2 -9 9 -20 15 -16 9
-20 8 -20 -5z"/>
<path d="M214 861 c-2 -2 1 -10 8 -18 8 -11 7 -12 -6 -7 -12 5 -15 2 -10 -11
4 -10 14 -15 25 -12 11 3 19 1 19 -5 0 -5 4 -7 10 -3 5 3 8 18 7 34 -2 23 -6
28 -25 27 -13 0 -25 -3 -28 -5z"/>
<path d="M294 798 c-4 -13 -11 -26 -17 -30 -6 -4 -4 -12 6 -23 10 -9 17 -19
18 -23 2 -24 8 -45 14 -50 4 -4 35 -6 71 -6 35 1 61 -2 58 -7 -3 -5 -1 -9 5
-9 5 0 13 9 16 21 5 15 10 18 18 10 6 -6 15 -11 21 -11 19 0 -37 39 -65 45
-34 8 -45 21 -30 39 8 10 0 19 -38 39 -59 33 -68 33 -77 5z"/>
<path d="M420 807 c0 -20 37 -50 50 -42 13 8 -2 30 -32 46 -13 7 -18 6 -18 -4z"/>
<path d="M554 675 c6 -16 -5 -19 -58 -15 -18 1 -26 -2 -22 -9 4 -6 20 -11 35
-11 15 0 33 -6 40 -12 11 -11 12 -10 6 2 -8 13 -7 13 8 1 10 -8 17 -9 17 -3 0
6 9 14 20 17 11 4 18 10 15 15 -3 5 -12 7 -20 3 -8 -3 -15 -1 -15 5 0 5 -7 13
-16 16 -12 4 -15 2 -10 -9z"/>
<path d="M774 645 c-4 -9 -12 -14 -19 -13 -8 2 -14 0 -14 -4 -3 -27 0 -38 10
-38 6 0 9 7 6 15 -5 11 0 13 23 8 29 -5 42 9 20 22 -6 4 -8 11 -5 16 4 5 1 9
-5 9 -6 0 -13 -7 -16 -15z"/>
<path d="M152 623 c2 -13 6 -23 10 -23 4 0 14 -14 21 -32 11 -27 21 -33 66
-44 43 -9 58 -9 80 2 14 8 19 14 11 14 -12 1 -11 3 3 11 9 5 22 7 29 3 7 -4 8
-3 4 5 -5 7 -20 9 -41 5 -31 -6 -33 -4 -49 38 l-17 43 -59 1 c-56 0 -59 -1
-58 -23z"/>
<path d="M866 623 c-8 -20 8 -22 28 -2 18 17 18 18 -3 16 -11 -1 -23 -7 -25
-14z"/>
<path d="M949 621 c11 -7 11 -9 0 -13 -23 -9 -2 -20 22 -13 22 7 22 8 4 21
-10 8 -24 14 -29 14 -6 0 -5 -4 3 -9z"/>
<path d="M795 530 c-3 -6 1 -7 9 -4 18 7 21 14 7 14 -6 0 -13 -4 -16 -10z"/>
<path d="M886 421 c-26 -16 -69 -31 -94 -35 -25 -3 -74 -22 -108 -41 l-63 -34
2 59 3 60 -43 0 -43 0 0 -55 c0 -48 -3 -55 -19 -55 -11 0 -23 -4 -26 -10 -3
-5 1 -10 9 -10 27 0 18 -29 -11 -36 -14 -4 -91 -4 -170 -1 -149 7 -163 11
-223 62 -14 12 -42 32 -62 44 l-38 23 0 -196 0 -196 1000 0 1000 0 0 145 c0
136 -1 145 -19 145 -11 0 -88 28 -173 63 l-153 62 -175 2 c-238 2 -435 13
-520 28 -16 3 -42 -5 -74 -24z m-280 -68 c-11 -11 -19 6 -11 24 8 17 8 17 12
0 3 -10 2 -21 -1 -24z m-32 11 c4 -10 1 -14 -6 -12 -15 5 -23 28 -10 28 5 0
13 -7 16 -16z"/>
</g>
</svg>
